<mxfile host="app.diagrams.net" modified="2024-02-11T10:43:59.700Z" agent="Mozilla/5.0 (Windows NT 10.0; Win64; x64) AppleWebKit/537.36 (KHTML, like Gecko) Chrome/121.0.0.0 Safari/537.36" etag="SA8qOscqz24KHC7gUiB2" version="23.1.2" type="gitlab">
  <diagram name="Page-1" id="03018318-947c-dd8e-b7a3-06fadd420f32">
    <mxGraphModel dx="1772" dy="927" grid="1" gridSize="10" guides="1" tooltips="1" connect="1" arrows="1" fold="1" page="1" pageScale="1" pageWidth="1100" pageHeight="850" background="#ffffff" math="0" shadow="0">
      <root>
        <mxCell id="0" />
        <mxCell id="1" parent="0" />
        <mxCell id="pZkMcdrrz5C5YnkmRVw--16" value="" style="whiteSpace=wrap;html=1;rounded=0;shadow=0;labelBackgroundColor=none;strokeWidth=1;fillColor=#f5f5f5;fontFamily=Verdana;fontSize=12;align=center;comic=1;fontColor=#333333;strokeColor=#666666;" vertex="1" parent="1">
          <mxGeometry x="30" y="40" width="1040" height="50" as="geometry" />
        </mxCell>
        <mxCell id="pZkMcdrrz5C5YnkmRVw--17" value="Home" style="text;html=1;points=[];align=left;verticalAlign=top;spacingTop=-4;fontSize=14;fontFamily=Verdana" vertex="1" parent="1">
          <mxGeometry x="610" y="55" width="60" height="20" as="geometry" />
        </mxCell>
        <mxCell id="pZkMcdrrz5C5YnkmRVw--20" value="&lt;span style=&quot;font-size: 18px;&quot;&gt;Vegetable Image Prediction&lt;/span&gt;" style="text;html=1;points=[];align=left;verticalAlign=top;spacingTop=-4;fontSize=14;fontFamily=Verdana" vertex="1" parent="1">
          <mxGeometry x="50" y="55" width="60" height="20" as="geometry" />
        </mxCell>
        <mxCell id="pZkMcdrrz5C5YnkmRVw--21" value="" style="rounded=1;whiteSpace=wrap;html=1;fillColor=#003366;" vertex="1" parent="1">
          <mxGeometry x="60" y="130" width="990" height="570" as="geometry" />
        </mxCell>
        <mxCell id="pZkMcdrrz5C5YnkmRVw--22" style="edgeStyle=orthogonalEdgeStyle;rounded=0;orthogonalLoop=1;jettySize=auto;html=1;exitX=1;exitY=0.5;exitDx=0;exitDy=0;entryX=1;entryY=0.75;entryDx=0;entryDy=0;" edge="1" parent="1">
          <mxGeometry relative="1" as="geometry">
            <mxPoint x="810" y="460" as="sourcePoint" />
            <mxPoint x="810" y="470" as="targetPoint" />
          </mxGeometry>
        </mxCell>
        <mxCell id="pZkMcdrrz5C5YnkmRVw--23" value="&lt;font color=&quot;#ffffff&quot; style=&quot;font-size: 24px;&quot;&gt;Prediction History&lt;/font&gt;" style="text;html=1;points=[];align=left;verticalAlign=top;spacingTop=-4;fontSize=14;fontFamily=Verdana" vertex="1" parent="1">
          <mxGeometry x="185" y="160" width="350" height="50" as="geometry" />
        </mxCell>
        <mxCell id="pZkMcdrrz5C5YnkmRVw--24" value="Copyright ©2023. ⚉ Vegetable Image Prediction ⚉ All rights reserved." style="whiteSpace=wrap;html=1;rounded=0;shadow=0;labelBackgroundColor=none;strokeWidth=1;fillColor=#f5f5f5;fontFamily=Verdana;fontSize=12;align=center;comic=1;fontColor=#333333;strokeColor=#666666;" vertex="1" parent="1">
          <mxGeometry y="740" width="1100" height="110" as="geometry" />
        </mxCell>
        <mxCell id="pZkMcdrrz5C5YnkmRVw--25" style="edgeStyle=orthogonalEdgeStyle;rounded=0;orthogonalLoop=1;jettySize=auto;html=1;exitX=1;exitY=0.5;exitDx=0;exitDy=0;entryX=1;entryY=0.75;entryDx=0;entryDy=0;" edge="1" parent="1">
          <mxGeometry relative="1" as="geometry">
            <mxPoint x="520" y="565" as="sourcePoint" />
            <mxPoint x="520" y="575" as="targetPoint" />
          </mxGeometry>
        </mxCell>
        <mxCell id="pZkMcdrrz5C5YnkmRVw--26" style="edgeStyle=orthogonalEdgeStyle;rounded=0;orthogonalLoop=1;jettySize=auto;html=1;exitX=1;exitY=0.5;exitDx=0;exitDy=0;entryX=1;entryY=0.75;entryDx=0;entryDy=0;" edge="1" parent="1">
          <mxGeometry relative="1" as="geometry">
            <mxPoint x="810" y="545" as="sourcePoint" />
            <mxPoint x="810" y="555" as="targetPoint" />
          </mxGeometry>
        </mxCell>
        <mxCell id="pZkMcdrrz5C5YnkmRVw--27" style="edgeStyle=orthogonalEdgeStyle;rounded=0;orthogonalLoop=1;jettySize=auto;html=1;exitX=1;exitY=0.5;exitDx=0;exitDy=0;entryX=1;entryY=0.75;entryDx=0;entryDy=0;" edge="1" parent="1">
          <mxGeometry relative="1" as="geometry">
            <mxPoint x="560" y="560" as="sourcePoint" />
            <mxPoint x="560" y="570" as="targetPoint" />
          </mxGeometry>
        </mxCell>
        <mxCell id="pZkMcdrrz5C5YnkmRVw--28" value="Assets" style="childLayout=tableLayout;recursiveResize=0;strokeColor=#98bf21;fillColor=#A7C942;shadow=1;" vertex="1" parent="1">
          <mxGeometry x="270" y="410" width="280" height="161" as="geometry" />
        </mxCell>
        <mxCell id="pZkMcdrrz5C5YnkmRVw--29" style="shape=tableRow;horizontal=0;startSize=0;swimlaneHead=0;swimlaneBody=0;top=0;left=0;bottom=0;right=0;dropTarget=0;collapsible=0;recursiveResize=0;expand=0;fontStyle=0;strokeColor=inherit;fillColor=#ffffff;" vertex="1" parent="pZkMcdrrz5C5YnkmRVw--28">
          <mxGeometry width="280" height="41" as="geometry" />
        </mxCell>
        <mxCell id="pZkMcdrrz5C5YnkmRVw--30" value="Model Used" style="connectable=0;recursiveResize=0;strokeColor=inherit;fillColor=#A7C942;align=center;fontStyle=1;fontColor=#FFFFFF;html=1;" vertex="1" parent="pZkMcdrrz5C5YnkmRVw--29">
          <mxGeometry width="93" height="41" as="geometry">
            <mxRectangle width="93" height="41" as="alternateBounds" />
          </mxGeometry>
        </mxCell>
        <mxCell id="pZkMcdrrz5C5YnkmRVw--31" value="Image Name" style="connectable=0;recursiveResize=0;strokeColor=inherit;fillColor=#A7C942;align=center;fontStyle=1;fontColor=#FFFFFF;html=1;" vertex="1" parent="pZkMcdrrz5C5YnkmRVw--29">
          <mxGeometry x="93" width="94" height="41" as="geometry">
            <mxRectangle width="94" height="41" as="alternateBounds" />
          </mxGeometry>
        </mxCell>
        <mxCell id="pZkMcdrrz5C5YnkmRVw--32" value="Predicted Class" style="connectable=0;recursiveResize=0;strokeColor=inherit;fillColor=#A7C942;align=center;fontStyle=1;fontColor=#FFFFFF;html=1;" vertex="1" parent="pZkMcdrrz5C5YnkmRVw--29">
          <mxGeometry x="187" width="93" height="41" as="geometry">
            <mxRectangle width="93" height="41" as="alternateBounds" />
          </mxGeometry>
        </mxCell>
        <mxCell id="pZkMcdrrz5C5YnkmRVw--33" value="" style="shape=tableRow;horizontal=0;startSize=0;swimlaneHead=0;swimlaneBody=0;top=0;left=0;bottom=0;right=0;dropTarget=0;collapsible=0;recursiveResize=0;expand=0;fontStyle=0;strokeColor=inherit;fillColor=#ffffff;" vertex="1" parent="pZkMcdrrz5C5YnkmRVw--28">
          <mxGeometry y="41" width="280" height="40" as="geometry" />
        </mxCell>
        <mxCell id="pZkMcdrrz5C5YnkmRVw--34" value="Model1_Large" style="connectable=0;recursiveResize=0;strokeColor=inherit;fillColor=inherit;align=center;whiteSpace=wrap;html=1;" vertex="1" parent="pZkMcdrrz5C5YnkmRVw--33">
          <mxGeometry width="93" height="40" as="geometry">
            <mxRectangle width="93" height="40" as="alternateBounds" />
          </mxGeometry>
        </mxCell>
        <mxCell id="pZkMcdrrz5C5YnkmRVw--35" value="potato.jpg" style="connectable=0;recursiveResize=0;strokeColor=inherit;fillColor=inherit;align=center;whiteSpace=wrap;html=1;" vertex="1" parent="pZkMcdrrz5C5YnkmRVw--33">
          <mxGeometry x="93" width="94" height="40" as="geometry">
            <mxRectangle width="94" height="40" as="alternateBounds" />
          </mxGeometry>
        </mxCell>
        <mxCell id="pZkMcdrrz5C5YnkmRVw--36" value="Potato" style="connectable=0;recursiveResize=0;strokeColor=inherit;fillColor=inherit;align=center;whiteSpace=wrap;html=1;" vertex="1" parent="pZkMcdrrz5C5YnkmRVw--33">
          <mxGeometry x="187" width="93" height="40" as="geometry">
            <mxRectangle width="93" height="40" as="alternateBounds" />
          </mxGeometry>
        </mxCell>
        <mxCell id="pZkMcdrrz5C5YnkmRVw--37" value="" style="shape=tableRow;horizontal=0;startSize=0;swimlaneHead=0;swimlaneBody=0;top=0;left=0;bottom=0;right=0;dropTarget=0;collapsible=0;recursiveResize=0;expand=0;fontStyle=1;strokeColor=inherit;fillColor=#EAF2D3;" vertex="1" parent="pZkMcdrrz5C5YnkmRVw--28">
          <mxGeometry y="81" width="280" height="39" as="geometry" />
        </mxCell>
        <mxCell id="pZkMcdrrz5C5YnkmRVw--38" value="Model2_Small" style="connectable=0;recursiveResize=0;strokeColor=inherit;fillColor=inherit;whiteSpace=wrap;html=1;" vertex="1" parent="pZkMcdrrz5C5YnkmRVw--37">
          <mxGeometry width="93" height="39" as="geometry">
            <mxRectangle width="93" height="39" as="alternateBounds" />
          </mxGeometry>
        </mxCell>
        <mxCell id="pZkMcdrrz5C5YnkmRVw--39" value="testImage.jpg" style="connectable=0;recursiveResize=0;strokeColor=inherit;fillColor=inherit;whiteSpace=wrap;html=1;" vertex="1" parent="pZkMcdrrz5C5YnkmRVw--37">
          <mxGeometry x="93" width="94" height="39" as="geometry">
            <mxRectangle width="94" height="39" as="alternateBounds" />
          </mxGeometry>
        </mxCell>
        <mxCell id="pZkMcdrrz5C5YnkmRVw--40" value="Carrot" style="connectable=0;recursiveResize=0;strokeColor=inherit;fillColor=inherit;whiteSpace=wrap;html=1;" vertex="1" parent="pZkMcdrrz5C5YnkmRVw--37">
          <mxGeometry x="187" width="93" height="39" as="geometry">
            <mxRectangle width="93" height="39" as="alternateBounds" />
          </mxGeometry>
        </mxCell>
        <mxCell id="pZkMcdrrz5C5YnkmRVw--41" value="" style="shape=tableRow;horizontal=0;startSize=0;swimlaneHead=0;swimlaneBody=0;top=0;left=0;bottom=0;right=0;dropTarget=0;collapsible=0;recursiveResize=0;expand=0;fontStyle=0;strokeColor=inherit;fillColor=#ffffff;" vertex="1" parent="pZkMcdrrz5C5YnkmRVw--28">
          <mxGeometry y="120" width="280" height="41" as="geometry" />
        </mxCell>
        <mxCell id="pZkMcdrrz5C5YnkmRVw--42" value="Model1_Large" style="connectable=0;recursiveResize=0;strokeColor=inherit;fillColor=inherit;fontStyle=0;align=center;whiteSpace=wrap;html=1;" vertex="1" parent="pZkMcdrrz5C5YnkmRVw--41">
          <mxGeometry width="93" height="41" as="geometry">
            <mxRectangle width="93" height="41" as="alternateBounds" />
          </mxGeometry>
        </mxCell>
        <mxCell id="pZkMcdrrz5C5YnkmRVw--43" value="Cabbage.jpg" style="connectable=0;recursiveResize=0;strokeColor=inherit;fillColor=inherit;fontStyle=0;align=center;whiteSpace=wrap;html=1;" vertex="1" parent="pZkMcdrrz5C5YnkmRVw--41">
          <mxGeometry x="93" width="94" height="41" as="geometry">
            <mxRectangle width="94" height="41" as="alternateBounds" />
          </mxGeometry>
        </mxCell>
        <mxCell id="pZkMcdrrz5C5YnkmRVw--44" value="Cabbage" style="connectable=0;recursiveResize=0;strokeColor=inherit;fillColor=inherit;fontStyle=0;align=center;whiteSpace=wrap;html=1;" vertex="1" parent="pZkMcdrrz5C5YnkmRVw--41">
          <mxGeometry x="187" width="93" height="41" as="geometry">
            <mxRectangle width="93" height="41" as="alternateBounds" />
          </mxGeometry>
        </mxCell>
        <mxCell id="pZkMcdrrz5C5YnkmRVw--49" value="Assets" style="childLayout=tableLayout;recursiveResize=0;strokeColor=#98bf21;fillColor=#A7C942;shadow=1;" vertex="1" parent="1">
          <mxGeometry x="550" y="410" width="280" height="161" as="geometry" />
        </mxCell>
        <mxCell id="pZkMcdrrz5C5YnkmRVw--50" style="shape=tableRow;horizontal=0;startSize=0;swimlaneHead=0;swimlaneBody=0;top=0;left=0;bottom=0;right=0;dropTarget=0;collapsible=0;recursiveResize=0;expand=0;fontStyle=0;strokeColor=inherit;fillColor=#ffffff;" vertex="1" parent="pZkMcdrrz5C5YnkmRVw--49">
          <mxGeometry width="280" height="41" as="geometry" />
        </mxCell>
        <mxCell id="pZkMcdrrz5C5YnkmRVw--51" value="Confidence" style="connectable=0;recursiveResize=0;strokeColor=inherit;fillColor=#A7C942;align=center;fontStyle=1;fontColor=#FFFFFF;html=1;" vertex="1" parent="pZkMcdrrz5C5YnkmRVw--50">
          <mxGeometry width="93" height="41" as="geometry">
            <mxRectangle width="93" height="41" as="alternateBounds" />
          </mxGeometry>
        </mxCell>
        <mxCell id="pZkMcdrrz5C5YnkmRVw--52" value="Date" style="connectable=0;recursiveResize=0;strokeColor=inherit;fillColor=#A7C942;align=center;fontStyle=1;fontColor=#FFFFFF;html=1;" vertex="1" parent="pZkMcdrrz5C5YnkmRVw--50">
          <mxGeometry x="93" width="94" height="41" as="geometry">
            <mxRectangle width="94" height="41" as="alternateBounds" />
          </mxGeometry>
        </mxCell>
        <mxCell id="pZkMcdrrz5C5YnkmRVw--53" value="Remove" style="connectable=0;recursiveResize=0;strokeColor=inherit;fillColor=#A7C942;align=center;fontStyle=1;fontColor=#FFFFFF;html=1;" vertex="1" parent="pZkMcdrrz5C5YnkmRVw--50">
          <mxGeometry x="187" width="93" height="41" as="geometry">
            <mxRectangle width="93" height="41" as="alternateBounds" />
          </mxGeometry>
        </mxCell>
        <mxCell id="pZkMcdrrz5C5YnkmRVw--54" value="" style="shape=tableRow;horizontal=0;startSize=0;swimlaneHead=0;swimlaneBody=0;top=0;left=0;bottom=0;right=0;dropTarget=0;collapsible=0;recursiveResize=0;expand=0;fontStyle=0;strokeColor=inherit;fillColor=#ffffff;" vertex="1" parent="pZkMcdrrz5C5YnkmRVw--49">
          <mxGeometry y="41" width="280" height="40" as="geometry" />
        </mxCell>
        <mxCell id="pZkMcdrrz5C5YnkmRVw--55" value="1.0%" style="connectable=0;recursiveResize=0;strokeColor=inherit;fillColor=inherit;align=center;whiteSpace=wrap;html=1;" vertex="1" parent="pZkMcdrrz5C5YnkmRVw--54">
          <mxGeometry width="93" height="40" as="geometry">
            <mxRectangle width="93" height="40" as="alternateBounds" />
          </mxGeometry>
        </mxCell>
        <mxCell id="pZkMcdrrz5C5YnkmRVw--56" value="2024-02-11&lt;br style=&quot;border-color: var(--border-color);&quot;&gt;15:49:01" style="connectable=0;recursiveResize=0;strokeColor=inherit;fillColor=inherit;align=center;whiteSpace=wrap;html=1;" vertex="1" parent="pZkMcdrrz5C5YnkmRVw--54">
          <mxGeometry x="93" width="94" height="40" as="geometry">
            <mxRectangle width="94" height="40" as="alternateBounds" />
          </mxGeometry>
        </mxCell>
        <mxCell id="pZkMcdrrz5C5YnkmRVw--57" value="Delete" style="connectable=0;recursiveResize=0;strokeColor=#b85450;fillColor=#f8cecc;align=center;whiteSpace=wrap;html=1;" vertex="1" parent="pZkMcdrrz5C5YnkmRVw--54">
          <mxGeometry x="187" width="93" height="40" as="geometry">
            <mxRectangle width="93" height="40" as="alternateBounds" />
          </mxGeometry>
        </mxCell>
        <mxCell id="pZkMcdrrz5C5YnkmRVw--58" value="" style="shape=tableRow;horizontal=0;startSize=0;swimlaneHead=0;swimlaneBody=0;top=0;left=0;bottom=0;right=0;dropTarget=0;collapsible=0;recursiveResize=0;expand=0;fontStyle=1;strokeColor=inherit;fillColor=#EAF2D3;" vertex="1" parent="pZkMcdrrz5C5YnkmRVw--49">
          <mxGeometry y="81" width="280" height="39" as="geometry" />
        </mxCell>
        <mxCell id="pZkMcdrrz5C5YnkmRVw--59" value="0.89%" style="connectable=0;recursiveResize=0;strokeColor=inherit;fillColor=inherit;whiteSpace=wrap;html=1;" vertex="1" parent="pZkMcdrrz5C5YnkmRVw--58">
          <mxGeometry width="93" height="39" as="geometry">
            <mxRectangle width="93" height="39" as="alternateBounds" />
          </mxGeometry>
        </mxCell>
        <mxCell id="pZkMcdrrz5C5YnkmRVw--60" value="2024-02-11&lt;br&gt;15:50:01" style="connectable=0;recursiveResize=0;strokeColor=inherit;fillColor=inherit;whiteSpace=wrap;html=1;" vertex="1" parent="pZkMcdrrz5C5YnkmRVw--58">
          <mxGeometry x="93" width="94" height="39" as="geometry">
            <mxRectangle width="94" height="39" as="alternateBounds" />
          </mxGeometry>
        </mxCell>
        <mxCell id="pZkMcdrrz5C5YnkmRVw--61" value="Delete" style="connectable=0;recursiveResize=0;strokeColor=#b85450;fillColor=#f8cecc;whiteSpace=wrap;html=1;" vertex="1" parent="pZkMcdrrz5C5YnkmRVw--58">
          <mxGeometry x="187" width="93" height="39" as="geometry">
            <mxRectangle width="93" height="39" as="alternateBounds" />
          </mxGeometry>
        </mxCell>
        <mxCell id="pZkMcdrrz5C5YnkmRVw--62" value="" style="shape=tableRow;horizontal=0;startSize=0;swimlaneHead=0;swimlaneBody=0;top=0;left=0;bottom=0;right=0;dropTarget=0;collapsible=0;recursiveResize=0;expand=0;fontStyle=0;strokeColor=inherit;fillColor=#ffffff;" vertex="1" parent="pZkMcdrrz5C5YnkmRVw--49">
          <mxGeometry y="120" width="280" height="41" as="geometry" />
        </mxCell>
        <mxCell id="pZkMcdrrz5C5YnkmRVw--63" value="1.0%" style="connectable=0;recursiveResize=0;strokeColor=inherit;fillColor=inherit;fontStyle=0;align=center;whiteSpace=wrap;html=1;" vertex="1" parent="pZkMcdrrz5C5YnkmRVw--62">
          <mxGeometry width="93" height="41" as="geometry">
            <mxRectangle width="93" height="41" as="alternateBounds" />
          </mxGeometry>
        </mxCell>
        <mxCell id="pZkMcdrrz5C5YnkmRVw--64" value="2024-02-11&lt;br style=&quot;border-color: var(--border-color);&quot;&gt;16:02:05" style="connectable=0;recursiveResize=0;strokeColor=inherit;fillColor=inherit;fontStyle=0;align=center;whiteSpace=wrap;html=1;" vertex="1" parent="pZkMcdrrz5C5YnkmRVw--62">
          <mxGeometry x="93" width="94" height="41" as="geometry">
            <mxRectangle width="94" height="41" as="alternateBounds" />
          </mxGeometry>
        </mxCell>
        <mxCell id="pZkMcdrrz5C5YnkmRVw--65" value="Delete" style="connectable=0;recursiveResize=0;strokeColor=#b85450;fillColor=#f8cecc;fontStyle=0;align=center;whiteSpace=wrap;html=1;" vertex="1" parent="pZkMcdrrz5C5YnkmRVw--62">
          <mxGeometry x="187" width="93" height="41" as="geometry">
            <mxRectangle width="93" height="41" as="alternateBounds" />
          </mxGeometry>
        </mxCell>
        <mxCell id="pZkMcdrrz5C5YnkmRVw--96" value="Predict Vegetables" style="text;html=1;points=[];align=left;verticalAlign=top;spacingTop=-4;fontSize=14;fontFamily=Verdana" vertex="1" parent="1">
          <mxGeometry x="670" y="55" width="60" height="20" as="geometry" />
        </mxCell>
        <mxCell id="pZkMcdrrz5C5YnkmRVw--97" value="Prediction History" style="text;html=1;points=[];align=left;verticalAlign=top;spacingTop=-4;fontSize=14;fontFamily=Verdana" vertex="1" parent="1">
          <mxGeometry x="820" y="55" width="60" height="20" as="geometry" />
        </mxCell>
        <mxCell id="pZkMcdrrz5C5YnkmRVw--98" value="Log Out" style="text;html=1;points=[];align=left;verticalAlign=top;spacingTop=-4;fontSize=14;fontFamily=Verdana" vertex="1" parent="1">
          <mxGeometry x="960" y="55" width="60" height="20" as="geometry" />
        </mxCell>
        <mxCell id="pZkMcdrrz5C5YnkmRVw--99" value="&lt;font color=&quot;#ffffff&quot; style=&quot;font-size: 18px;&quot;&gt;&amp;nbsp; &amp;nbsp; &amp;nbsp; &amp;nbsp;Model1_Large&lt;/font&gt;" style="rounded=1;whiteSpace=wrap;html=1;align=left;fillColor=#000000;" vertex="1" parent="1">
          <mxGeometry x="185" y="200" width="715" height="40" as="geometry" />
        </mxCell>
        <mxCell id="pZkMcdrrz5C5YnkmRVw--100" value="&lt;font color=&quot;#ffffff&quot; style=&quot;font-size: 18px;&quot;&gt;&amp;nbsp; &amp;nbsp; &amp;nbsp; &amp;nbsp; All Predicted Classes&lt;/font&gt;" style="rounded=1;whiteSpace=wrap;html=1;align=left;fillColor=#000000;" vertex="1" parent="1">
          <mxGeometry x="185" y="250" width="715" height="40" as="geometry" />
        </mxCell>
        <mxCell id="pZkMcdrrz5C5YnkmRVw--101" value="&lt;font style=&quot;font-size: 24px;&quot;&gt;Filter&lt;/font&gt;" style="rounded=1;whiteSpace=wrap;html=1;fillColor=#dae8fc;strokeColor=#6c8ebf;direction=south;" vertex="1" parent="1">
          <mxGeometry x="190" y="300" width="100" height="42.5" as="geometry" />
        </mxCell>
        <mxCell id="pZkMcdrrz5C5YnkmRVw--102" value="" style="shape=singleArrow;direction=south;whiteSpace=wrap;html=1;" vertex="1" parent="1">
          <mxGeometry x="830" y="200" width="60" height="40" as="geometry" />
        </mxCell>
        <mxCell id="pZkMcdrrz5C5YnkmRVw--103" value="" style="shape=singleArrow;direction=south;whiteSpace=wrap;html=1;" vertex="1" parent="1">
          <mxGeometry x="830" y="250" width="60" height="40" as="geometry" />
        </mxCell>
      </root>
    </mxGraphModel>
  </diagram>
</mxfile>
